<svg width="17" height="18" viewBox="0 0 17 18" fill="none" xmlns="http://www.w3.org/2000/svg">
<path d="M5.5783 9.90834C5.668 9.77425 5.76422 9.64465 5.86664 9.52C5.64384 9.09985 5.52765 8.6314 5.5283 8.15584C4.97956 7.61149 4.66926 6.87164 4.66551 6.09872C4.66176 5.3258 4.96487 4.58298 5.5083 4.03334C5.51441 3.26772 5.82131 2.5352 6.36278 1.99389C6.90425 1.45258 7.63685 1.14588 8.40247 1.14C8.67418 0.858107 9.00001 0.633976 9.36044 0.481044C9.72086 0.328112 10.1084 0.249528 10.5 0.250002C11.2858 0.250002 11.9991 0.560835 12.5233 1.06667C12.9077 1.0648 13.2886 1.13884 13.6443 1.28454C14 1.43024 14.3234 1.64474 14.596 1.91572C14.8686 2.1867 15.0851 2.50883 15.2329 2.86364C15.3807 3.21845 15.457 3.59896 15.4575 3.98334C16.016 4.53973 16.331 5.29497 16.3333 6.08334C16.3333 6.875 16.0175 7.59417 15.505 8.11917V8.16667C15.505 8.55365 15.4281 8.93677 15.2786 9.29371C15.1291 9.65066 14.9101 9.97428 14.6343 10.2457C14.3585 10.5172 14.0314 10.7311 13.6721 10.8749C13.3129 11.0187 12.9286 11.0895 12.5416 11.0833C12.0158 11.5983 11.295 11.9167 10.5 11.9167C9.69997 11.9167 8.97497 11.5942 8.44747 11.0725C7.95823 11.0733 7.47671 10.9506 7.04747 10.7158C6.63543 11.2788 6.42221 11.9628 6.44137 12.6602C6.46053 13.3576 6.71097 14.0288 7.1533 14.5683L8.64497 16.3883C8.78509 16.5593 8.85157 16.7789 8.82976 16.9989C8.80796 17.2188 8.69967 17.4211 8.52872 17.5613C8.35777 17.7014 8.13815 17.7678 7.91819 17.746C7.69822 17.7242 7.49593 17.616 7.3558 17.445L5.86414 15.625C5.51834 15.204 5.24669 14.7272 5.0608 14.215C4.62174 14.459 4.12291 14.5745 3.6213 14.5484C3.11969 14.5223 2.63553 14.3557 2.22414 14.0675C1.41747 13.5017 0.728304 11.6833 0.157471 8.61167C2.7758 8.75917 4.4883 9.11584 5.2958 9.68084C5.3958 9.75167 5.4908 9.8275 5.57914 9.90917L5.5783 9.90834ZM9.13247 9.405L9.6208 9.88834C9.85414 10.1192 10.165 10.25 10.5 10.25C10.8333 10.25 11.1416 10.1217 11.375 9.8925L11.8716 9.40584L12.5675 9.41667C13.2791 9.41667 13.8383 8.8575 13.8383 8.16667L13.8275 7.4525L14.3116 6.95584C14.5391 6.7225 14.6666 6.415 14.6666 6.08334C14.6666 5.74167 14.5308 5.425 14.2916 5.19L13.7866 4.69584L13.7908 3.99C13.7908 3.2925 13.2316 2.7325 12.5408 2.7325L11.855 2.73667L11.3675 2.26667C11.1351 2.04122 10.8237 1.91561 10.5 1.91667C10.3321 1.91619 10.1658 1.94977 10.0113 2.01537C9.85673 2.08097 9.71709 2.17723 9.6008 2.29834L9.11497 2.80084L8.41497 2.80667C8.08691 2.80928 7.77303 2.94076 7.54105 3.17275C7.30907 3.40473 7.17759 3.71861 7.17497 4.04667L7.16997 4.72334L6.69414 5.205C6.4633 5.43834 6.3333 5.74834 6.3333 6.08334C6.3333 6.4225 6.46664 6.73584 6.70247 6.97084L7.1958 7.46V8.155C7.1958 8.48652 7.3275 8.80447 7.56192 9.03889C7.79634 9.27331 8.11428 9.405 8.4458 9.405H9.13247ZM10.5 7.75C10.0579 7.75 9.63402 7.57441 9.32146 7.26185C9.0089 6.94929 8.8333 6.52536 8.8333 6.08334C8.8333 5.64131 9.0089 5.21738 9.32146 4.90482C9.63402 4.59226 10.0579 4.41667 10.5 4.41667C10.942 4.41667 11.3659 4.59226 11.6785 4.90482C11.991 5.21738 12.1666 5.64131 12.1666 6.08334C12.1666 6.52536 11.991 6.94929 11.6785 7.26185C11.3659 7.57441 10.942 7.75 10.5 7.75ZM3.1808 12.7017C3.40053 12.8429 3.66637 12.8935 3.92263 12.8431C4.17888 12.7926 4.40565 12.6449 4.55541 12.4309C4.70517 12.2169 4.7663 11.9533 4.72598 11.6952C4.68566 11.4372 4.54703 11.2048 4.33914 11.0467C4.0408 10.8375 3.3408 10.6375 2.2808 10.485C2.6308 11.79 2.96914 12.5542 3.1808 12.7017Z" fill="#678C96" fill-opacity="0.8"/>
</svg>
