<svg width="20" height="20" viewBox="0 0 20 20" fill="none" xmlns="http://www.w3.org/2000/svg">
<path d="M19.0625 7.86561C19.0631 7.66035 19.0229 7.45701 18.9443 7.26739C18.8657 7.07776 18.7503 6.90562 18.6047 6.76092L13.2391 1.39452C13.094 1.24936 12.9217 1.13421 12.7321 1.05564C12.5425 0.977082 12.3392 0.936646 12.134 0.936646C11.9287 0.936646 11.7255 0.977082 11.5359 1.05564C11.3463 1.13421 11.174 1.24936 11.0289 1.39452L8.85547 3.56795L4.3836 5.2453C4.12678 5.34153 3.89982 5.50366 3.72552 5.7154C3.55122 5.92714 3.43572 6.18103 3.39063 6.45155L1.575 17.3437C1.55227 17.4782 1.55916 17.616 1.59518 17.7476C1.6312 17.8791 1.69549 18.0012 1.78356 18.1054C1.87163 18.2095 1.98137 18.2932 2.10511 18.3505C2.22885 18.4079 2.36361 18.4376 2.5 18.4375C2.55234 18.4377 2.60461 18.4335 2.65625 18.425L13.5508 16.6086C13.821 16.563 14.0746 16.4475 14.2862 16.2734C14.4979 16.0993 14.6602 15.8728 14.757 15.6164L16.4336 11.1437L18.607 8.9703C18.7522 8.82543 18.8673 8.6532 18.9454 8.46358C19.0236 8.27396 19.0634 8.07071 19.0625 7.86561ZM13.0625 14.789L5.23438 16.0937L7.8125 13.5156C8.37913 13.7714 9.01752 13.8203 9.61651 13.6539C10.2155 13.4875 10.7371 13.1162 11.0906 12.6048C11.444 12.0933 11.6069 11.4741 11.5508 10.855C11.4947 10.2358 11.2232 9.65595 10.7836 9.21635C10.344 8.77675 9.76418 8.50527 9.14503 8.44918C8.52588 8.3931 7.90667 8.55596 7.39523 8.9094C6.8838 9.26284 6.51253 9.78448 6.3461 10.3835C6.17966 10.9825 6.22859 11.6209 6.48438 12.1875L3.90625 14.7656L5.21094 6.93748L9.14063 5.46405L14.5352 10.8594L13.0625 14.789ZM8.125 11.0937C8.125 10.9392 8.17082 10.7882 8.25667 10.6597C8.34251 10.5312 8.46453 10.4311 8.60728 10.372C8.75004 10.3128 8.90712 10.2974 9.05867 10.3275C9.21021 10.3576 9.34942 10.432 9.45868 10.5413C9.56794 10.6506 9.64235 10.7898 9.67249 10.9413C9.70264 11.0929 9.68716 11.2499 9.62803 11.3927C9.5689 11.5355 9.46877 11.6575 9.34029 11.7433C9.21182 11.8292 9.06077 11.875 8.90625 11.875C8.69905 11.875 8.50034 11.7927 8.35383 11.6462C8.20731 11.4996 8.125 11.3009 8.125 11.0937ZM15.625 9.29686L10.7031 4.37498L12.1359 2.94217L17.0578 7.86405L15.625 9.29686Z" fill="#678C96" fill-opacity="0.5"/>
</svg>
