<svg width="18" height="18" viewBox="0 0 18 18" fill="none" xmlns="http://www.w3.org/2000/svg">
<path d="M8.99996 13.1667C9.23607 13.1667 9.43413 13.0867 9.59413 12.9267C9.75413 12.7667 9.83385 12.5689 9.83329 12.3334V9.00002C9.83329 8.76391 9.75329 8.56585 9.59329 8.40585C9.43329 8.24585 9.23551 8.16613 8.99996 8.16669C8.76385 8.16669 8.56579 8.24669 8.40579 8.40669C8.24579 8.56669 8.16607 8.76446 8.16663 9.00002V12.3334C8.16663 12.5695 8.24663 12.7675 8.40663 12.9275C8.56663 13.0875 8.7644 13.1672 8.99996 13.1667ZM8.99996 6.50002C9.23607 6.50002 9.43413 6.42002 9.59413 6.26002C9.75413 6.10002 9.83385 5.90224 9.83329 5.66669C9.83329 5.43058 9.75329 5.23252 9.59329 5.07252C9.43329 4.91252 9.23551 4.8328 8.99996 4.83335C8.76385 4.83335 8.56579 4.91335 8.40579 5.07335C8.24579 5.23335 8.16607 5.43113 8.16663 5.66669C8.16663 5.9028 8.24663 6.10085 8.40663 6.26085C8.56663 6.42085 8.7644 6.50058 8.99996 6.50002ZM8.99996 17.3334C7.84718 17.3334 6.76385 17.1145 5.74996 16.6767C4.73607 16.2389 3.85413 15.6453 3.10413 14.8959C2.35413 14.1459 1.76051 13.2639 1.32329 12.25C0.886071 11.2361 0.667182 10.1528 0.666626 9.00002C0.666626 7.84724 0.885515 6.76391 1.32329 5.75002C1.76107 4.73613 2.35468 3.85419 3.10413 3.10419C3.85413 2.35419 4.73607 1.76058 5.74996 1.32335C6.76385 0.886132 7.84718 0.667243 8.99996 0.666687C10.1527 0.666687 11.2361 0.885576 12.25 1.32335C13.2638 1.76113 14.1458 2.35474 14.8958 3.10419C15.6458 3.85419 16.2397 4.73613 16.6775 5.75002C17.1152 6.76391 17.3338 7.84724 17.3333 9.00002C17.3333 10.1528 17.1144 11.2361 16.6766 12.25C16.2388 13.2639 15.6452 14.1459 14.8958 14.8959C14.1458 15.6459 13.2638 16.2397 12.25 16.6775C11.2361 17.1153 10.1527 17.3339 8.99996 17.3334ZM8.99996 15.6667C10.8611 15.6667 12.4375 15.0209 13.7291 13.7292C15.0208 12.4375 15.6666 10.8611 15.6666 9.00002C15.6666 7.13891 15.0208 5.56252 13.7291 4.27085C12.4375 2.97919 10.8611 2.33335 8.99996 2.33335C7.13885 2.33335 5.56246 2.97919 4.27079 4.27085C2.97913 5.56252 2.33329 7.13891 2.33329 9.00002C2.33329 10.8611 2.97913 12.4375 4.27079 13.7292C5.56246 15.0209 7.13885 15.6667 8.99996 15.6667Z" fill="#678C96" fill-opacity="0.5"/>
</svg>
