<svg width="6" height="6" viewBox="0 0 6 6" fill="none" xmlns="http://www.w3.org/2000/svg">
<path d="M5.50001 3.41585H3.41668V5.49919C3.41668 5.60969 3.37278 5.71567 3.29464 5.79381C3.2165 5.87195 3.11052 5.91585 3.00001 5.91585C2.8895 5.91585 2.78352 5.87195 2.70538 5.79381C2.62724 5.71567 2.58334 5.60969 2.58334 5.49919V3.41585H0.50001C0.389503 3.41585 0.283523 3.37195 0.205382 3.29381C0.127242 3.21567 0.0833435 3.10969 0.0833435 2.99919C0.0833435 2.88868 0.127242 2.7827 0.205382 2.70456C0.283523 2.62642 0.389503 2.58252 0.50001 2.58252H2.58334V0.499186C2.58334 0.388679 2.62724 0.282698 2.70538 0.204558C2.78352 0.126418 2.8895 0.0825195 3.00001 0.0825195C3.11052 0.0825195 3.2165 0.126418 3.29464 0.204558C3.37278 0.282698 3.41668 0.388679 3.41668 0.499186V2.58252H5.50001C5.61052 2.58252 5.7165 2.62642 5.79464 2.70456C5.87278 2.7827 5.91668 2.88868 5.91668 2.99919C5.91668 3.10969 5.87278 3.21567 5.79464 3.29381C5.7165 3.37195 5.61052 3.41585 5.50001 3.41585Z" fill="black"/>
</svg>
